<svg xmlns="http://www.w3.org/2000/svg" viewBox="0 0 415.11 408.36"><defs><style>.cls-1{fill:#dbccaf;}</style></defs><g id="Calque_2" data-name="Calque 2"><g id="Calque_1-2" data-name="Calque 1"><path class="cls-1" d="M309.59,246.07H373a41.67,41.67,0,0,0,0-83.34H309.44l92.73-91.11a41.66,41.66,0,0,0-58.4-59.44l-94.51,92.87V42.23a41.67,41.67,0,1,0-83.34,0v63l-94.86-93A41.66,41.66,0,1,0,12.72,71.65l92.88,91.08H41.89a41.67,41.67,0,0,0,0,83.34h63.56l-92.7,90.72A41.67,41.67,0,1,0,71,396.35l94.89-92.87v63.09a41.67,41.67,0,1,0,83.34,0v-63l94.54,92.71a41.66,41.66,0,0,0,58.34-59.5Z"/><circle cx="207.59" cy="41.49" r="41.34"/><circle cx="207.59" cy="367.01" r="41.34"/><circle cx="41.37" cy="204.4" r="41.34"/><circle cx="373.76" cy="204.4" r="41.34"/><circle cx="373.52" cy="366.86" r="41.34"/><circle cx="41.34" cy="366.86" r="41.34"/><circle cx="41.34" cy="41.34" r="41.34"/><circle cx="373.52" cy="41.34" r="41.34"/><circle cx="207.57" cy="204.25" r="41.34"/></g></g></svg>