<svg xmlns="http://www.w3.org/2000/svg" viewBox="0 0 414.41 408"><defs><style>.cls-1{fill:#fff;}</style></defs><g id="Calque_2" data-name="Calque 2"><g id="Calque_1-2" data-name="Calque 1"><path class="cls-1" d="M309.36,245.83h63.39a41.67,41.67,0,0,0,0-83.33H309.22L402,71.39A41.67,41.67,0,1,0,343.54,12L249,104.81V42a41.67,41.67,0,1,0-83.33,0v63l-94.86-93a41.67,41.67,0,0,0-58.35,59.5l92.88,91.08H41.67a41.67,41.67,0,1,0,0,83.33h63.56L12.52,336.56a41.67,41.67,0,0,0,58.29,59.55l94.89-92.87v63.1a41.67,41.67,0,0,0,83.33,0v-63l94.54,92.7a41.66,41.66,0,1,0,58.35-59.49Z"/></g></g></svg>